<?xml version="1.0" encoding="utf-8"?>
<!-- Generator: Adobe Illustrator 25.2.0, SVG Export Plug-In . SVG Version: 6.00 Build 0)  -->
<svg version="1.1" id="Layer_1" xmlns="http://www.w3.org/2000/svg" xmlns:xlink="http://www.w3.org/1999/xlink" x="0px" y="0px"
	 viewBox="0 0 1000 1000" style="enable-background:new 0 0 1000 1000;" xml:space="preserve">
<style type="text/css">
	.st0{display:none;fill:#FFFFFF;}
</style>
<rect class="st0" width="1000" height="1000"/>
<g>
	<g>
		<path d="M112.33,111.65c12.16-2.23,24.54-0.24,36.8-0.28c12.24,1.04,24.52,2.3,36.51,5.08c29.42,6.74,56.88,21.31,79.53,41.19
			c17.73,15.37,32.9,33.45,46.71,52.36c1.91,2.76,4.97,5.46,8.56,5.05c5.51-1.21,9.82-5.1,14.61-7.82
			c39.88-25.14,86.32-38.8,133.08-42.88c37.56-2.91,75.71-0.89,112.37,8.16c30.04,7.23,59.02,19.1,85.21,35.51
			c4.26,2.48,8.3,5.56,13.1,6.92c3.78,1.04,6.74-2.18,8.83-4.84c11.5-15.67,23.59-30.99,37.69-44.43
			c18.26-18.01,40.13-32.51,64.13-41.7c15.42-6.18,31.82-9.55,48.29-11.42c16.36-1.38,32.86-2.78,49.26-1.16
			c0.86,0.87,1.71,1.74,2.59,2.6c1.93,8.77,1.03,17.8,1.78,26.68c0.92,34.7,0.35,71-14.88,102.96
			c-10.98,23.69-30.44,42.96-53.74,54.56c-11.92,6.26-24.9,9.95-37.65,14.05c-3.97,2.8-4.46,7.85-2.73,12.1
			c20.12,68.12,40.93,136.05,61.38,204.08c5.94,19.89,12.67,39.55,18.23,59.55c7.7,26.63,15.92,53.11,24.09,79.59
			c1.16,4.27,3.63,8.57,2.34,13.11c-0.99,2.12-2.62,3.96-4.52,5.31c-48.85,32.46-97.95,64.53-146.83,96.94
			c-2.99,1.93-5.95,3.92-9.01,5.74c-5.7-17.9-15.02-34.59-27.37-48.77c-2.68-3.79-7.1-6.87-7.38-11.87c-0.67-4.15,2.1-8.5,6.11-9.7
			c3.6-1.03,7.31-1.63,10.95-2.51c34.89-8.29,67.66-27.53,89.84-55.97c19.9-25.39,30.22-56.9,35.75-88.31
			c1.54-6.73,0.71-14.73-4.75-19.54c-5.5-4.86-13.9-4.04-19.87-0.51c-9.35,5.38-16.72,13.42-25.08,20.09
			c-8.71,6.91-18.1,12.94-27.88,18.23c-7.63,4.15-15.49,8.09-23.98,10.15c-6.32,1.42-12.63,3.56-19.19,3.19
			c11-11.97,27.36-17.54,37.86-30.09c3.79-5.01,6.94-11.88,4.25-18.08c-2.49-5.1-9.03-6.55-14.14-5.29
			c-6.78,1.48-13.62,3.21-19.8,6.43c-20.6,13.63-40.08,28.85-58.99,44.72c-6.2,4.28-11.32,10.37-13.43,17.71
			c-2.02,8.27,0.19,16.71,0.98,24.98c2.56,19.5,7.69,38.68,9.03,58.34c-2.45-1.2-4.69-2.74-6.84-4.37
			c-21.36-15.34-43.81-29.25-67.54-40.64c-21.6-10.24-44.06-19.25-67.7-23.41c-9.71-1.94-19.66-1.24-29.49-1.14
			c-22.01,2.66-43.1,10.15-63.38,18.82c-29.8,13.01-57.88,29.74-84.2,48.78c-1.12,0.67-2.28,1.26-3.47,1.82
			c1.96-23.04,8.51-45.48,10.64-68.52c1.92-7.54,0.25-15.67-4.31-21.94c-5.39-7.32-12.98-12.54-19.75-18.47
			c-14.38-12.49-30.08-23.36-45.66-34.28c-5.14-3.86-11.46-5.47-17.53-7.23c-4.31-1.08-8.84-2.71-13.28-1.38
			c-5.91,1.34-9.12,8.44-7.18,13.97c2.01,8.07,8.33,14.06,14.76,18.89c6.49,4.78,13.25,9.2,20,13.61c3.06,2,6.17,4.15,7.98,7.42
			c-9.63-0.14-18.77-3.62-27.82-6.53c-11.98-3.82-22.39-11.08-32.76-17.98c-8.65-5.99-17.06-12.33-24.82-19.44
			c-6.22-5.03-12.82-11.56-21.44-11.16c-6.85-0.14-12.11,6.08-13.42,12.37c-0.56,6.61,0.08,13.26,1.53,19.72
			c5.33,24.74,13.47,49.31,27.51,70.56c23.8,35.96,63.87,59.16,105.92,66.59c6.78,1.07,9.6,9.93,5.54,15.17
			c-10.54,12.05-20.39,24.98-26.9,39.73c-2.39,5.19-4.1,10.65-6.16,15.99c-51.6-33.76-102.77-68.19-154.26-102.1
			c-3.53-2.16-6.44-6.32-5.99-10.56c14.23-45.03,26.94-90.52,41.2-135.54c21.84-72.13,43.91-144.17,65.58-216.36
			c1.38-3.56,1.91-8.11-1.39-10.83c-4.31-2.49-9.33-3.26-13.93-5.02c-16.43-5.15-32.38-12.41-46.03-23.01
			c-19.45-15-33.34-36.55-40.22-60.03c-7.34-24.51-8.25-50.32-7.71-75.73c-0.15-11.28,0.19-22.57,1.45-33.8
			C110.4,114.29,110.96,112.65,112.33,111.65z M732.59,237.28c-11.8,7.76-22.12,19.19-25.17,33.31c-0.86,5.23-0.69,11.34,3.31,15.31
			c2.73,3.27,7.36,2.63,11.15,2.51c5.79-0.54,12.27-2.93,14.93-8.53c6.39-12.9,18.66-22.15,32.2-26.54
			c9.91-3.51,20.49-4.2,30.65-6.7c10.86-3.04,16.26-16.14,13.34-26.5c-0.86-0.94-1.71-1.88-2.55-2.82
			c-5.47-1.15-11.07-0.78-16.58-0.41C772.13,218.06,750.45,224.68,732.59,237.28z M185.14,220.97c-0.1,4.4-0.48,8.96,1.08,13.17
			c2.06,6.02,7.01,11.44,13.43,12.73c9.68,2.15,19.67,2.99,29.11,6.18c13.82,4.63,26.79,13.73,33.29,27.1
			c1.97,4.41,6.3,7.71,11.13,8.26c5.94,0.79,12.75,0.39,17.34-3.92c3.36-3.1,2.18-7.91,1.65-11.87
			c-2.85-14.79-12.92-27.38-25.5-35.3c-19.68-14.06-44.07-19.93-67.98-20.4C193.96,216.99,187.32,215.47,185.14,220.97z
			 M653.97,379.75c-10.78,1.39-21.34,4.93-30.43,10.95c-13.93,8.86-24.67,22.12-31.76,36.94c-5.07,11.16-10.22,23.71-6.21,36.04
			c2.18,5.94,8.39,9.15,14.46,9.2c19.18,0.08,38.35,0.18,57.53,0.18c8.82,0.11,17.78-0.09,26.37-2.33c3.84-1.65,7.74-3.68,9.91-7.45
			c11.24-16.82,20.73-34.78,28.98-53.22c2.3-5.64,5.19-11.31,5.35-17.52c-1.4-4.46-3.27-9.54-7.83-11.61
			c-5.1-2.6-11.09-1.78-16.62-1.96C687.14,379.09,670.52,378.46,653.97,379.75z M271.89,391.06c-1.82,5.82,1.19,11.54,3.26,16.85
			c8.39,19.28,18.33,37.96,30.53,55.1c2.39,3.2,4.86,6.81,8.85,8.12c8.48,2.67,17.46,2,26.22,2.06c17.65-0.02,35.3,0.05,52.95,0
			c4.46,0.02,8.91-0.78,13.09-2.34c9.07-5.14,9.91-17.44,6.81-26.38c-6.12-18.75-16.11-37.12-31.99-49.32
			c-12.76-10.13-29.04-15.82-45.34-15.56c-16.53-0.01-33.05,0-49.58-0.02C279.77,379.01,273.47,384.53,271.89,391.06z"/>
	</g>
	<path d="M645.14,418c11.77-5.74,25.17-4.04,37.8-3.77c-2.95,7.19-7.54,13.61-10.86,20.66c-1.5,3.57-5.31,5.14-9.01,4.97
		c-12.47,0.15-24.98,0.55-37.43-0.11C629.76,430.81,635.93,422.2,645.14,418z"/>
	<path d="M315.47,414.5c10.35,0.41,20.84-1.7,31.05,0.82c12.61,2.85,22.99,12.74,27.64,24.65c-12.28,0.09-24.55,0.02-36.82-0.26
		c-3.3-0.29-7.74,0.35-9.58-3.13C323.71,429.2,319.62,421.83,315.47,414.5z"/>
	<path d="M207.6,607.98c31.13,22.26,69.56,32.49,107.5,33.31c-0.54,8.7-3.3,17.08-5.05,25.59c-1.68,6.38-2.54,12.99-4.6,19.25
		c-0.27,0.21-0.82,0.65-1.09,0.88c-9.58-0.85-18.75-4.09-27.65-7.54c-25.2-10.07-48.07-27.46-61.98-51.01
		C211.29,622.11,207.18,615.49,207.6,607.98z"/>
	<path d="M774.26,618.38c6.02-3.2,11.7-6.96,17.53-10.46c0.57,7.28-3.42,13.72-6.66,19.91c-16.49,27.95-45.15,47.18-75.94,56.19
		c-4.87,1.48-9.89,2.4-14.91,3.07c-2.42-6.57-3.22-13.57-5.01-20.3c-1.69-8.49-4.57-16.79-5.07-25.47
		C715.3,639.64,746.55,633.01,774.26,618.38z"/>
	<g>
		<path d="M488.99,664.48c15.43-2.65,31.05,0.82,45.67,5.74c37.88,12.58,73.08,32.49,104.92,56.43c16.08,12.3,31.5,25.93,43,42.74
			c6.94,10.2,12.78,21.72,13.57,34.25c1.42,16.74-3.95,33.76-14.04,47.12c-12.16,15.95-29.65,27.61-48.8,33.41
			c-25.21,7.42-52.16,6.25-77.64,0.85c-12.46-2.43-24.61-6.11-36.95-8.96c-7.79-1.6-15.76-3.45-23.75-2.36
			c-16.39,2.37-32.12,7.86-48.33,11.12c-18.78,3.95-38.16,5.74-57.29,3.8c-18.78-2.03-37.51-7.73-53-18.8
			c-15.77-10.7-27.82-27.24-31.79-45.99c-2.75-12.51-2.13-25.91,3.02-37.73c7.65-17.69,20.57-32.52,34.79-45.27
			c15.33-13.58,32.23-25.25,49.62-36.03c22.69-13.79,46.65-25.71,71.92-34.02C472.11,668.08,480.46,665.8,488.99,664.48z
			 M453.85,740.49c-3.57,1.98-7.09,4.52-8.66,8.45c-2.81,6.96-1.67,14.61-1.87,21.93c0.16,5.6,0.3,11.9-3.68,16.38
			c-5.24,5.74-11.33,10.61-16.92,16c-4,3.9-8.84,7.32-11.07,12.64c-3.56,8.18,0.89,18.84,9.44,21.73
			c6.44,2.71,13.32-1.26,17.97-5.63c8.14-8,16.05-16.26,24.35-24.09c4.57-4.26,8.56-9.46,10.11-15.6
			c2.1-11.93,1.13-24.08,1.33-36.12c0.33-4.5-1.18-9.27-4.77-12.15C465.82,739.89,459.42,738.99,453.85,740.49z M535.11,740.64
			c-7.43,2.95-10.96,11.37-10.65,18.96c0.36,11.21-0.78,22.57,1.61,33.63c1.6,5.78,5.69,10.44,10.03,14.42
			c6.69,6.1,12.98,12.61,19.4,19c4.04,4.26,7.98,9.11,13.78,11.01c6.49,2.72,14.13-1.09,17.44-6.94c2.62-4.02,2.49-9.1,1.85-13.66
			c-3.53-7.93-10.94-13.04-17.01-18.89c-5.4-5.52-12.42-9.98-15.41-17.42c-1.62-6.14-0.83-12.6-1.1-18.88
			c-0.28-4.71,0.8-9.89-1.86-14.1C549.87,741.51,541.85,737.83,535.11,740.64z"/>
	</g>
</g>
</svg>
